<svg width="220" height="251" viewBox="0 0 220 251" fill="none" xmlns="http://www.w3.org/2000/svg">
<g clip-path="url(#clip0)">
<path fill-rule="evenodd" clip-rule="evenodd" d="M106.155 219.993L106.159 220H147.866V219.986C196.981 219.099 236.538 176.912 236.538 125C236.538 73.0878 196.981 30.9007 147.866 30.0142V30H103.841L103.839 30.007C51.9068 30.629 10 72.9206 10 125C10 177.467 52.5329 220 105 220C105.385 220 105.77 219.998 106.155 219.993ZM103.922 205.378L105.945 205.379C149.905 204.873 185.385 169.08 185.385 125C185.385 80.6048 149.395 44.6154 105 44.6154C60.6048 44.6154 24.6154 80.6048 24.6154 125C24.6154 169.035 60.0235 204.8 103.922 205.378ZM156.879 204.597C193.125 199.159 221.922 166.168 221.922 125C221.922 83.8319 193.125 50.8412 156.879 45.4029C182.842 62.3596 200 91.6761 200 125C200 158.324 182.842 187.64 156.879 204.597Z" fill="#18A0FB"/>
<path d="M97.6925 66.5385H112.308V88.4616H97.6925V66.5385Z" fill="#18A0FB"/>
<path d="M97.6925 161.538H112.308V183.462H97.6925V161.538Z" fill="#18A0FB"/>
<path fill-rule="evenodd" clip-rule="evenodd" d="M107.005 95.7692C94.0495 95.7692 89.1415 103.029 89.1415 106.731C89.1415 108.429 89.5525 109.462 90.0599 110.216C90.6224 111.052 91.5983 111.971 93.2921 112.927C96.9427 114.988 102.128 116.302 108.723 117.897C108.9 117.94 109.079 117.983 109.259 118.027C115.15 119.45 122.285 121.174 127.902 124.345C130.928 126.053 133.885 128.369 136.075 131.625C138.321 134.963 139.483 138.878 139.483 143.269C139.483 151.691 135.843 158.535 129.409 162.982C123.333 167.182 115.38 168.846 107.005 168.846C89.7028 168.846 77.8806 161.792 70.4591 154.61L80.623 144.108C85.787 149.105 94.1015 154.231 107.005 154.231C113.732 154.231 118.364 152.85 121.098 150.96C123.474 149.317 124.868 147.027 124.868 143.269C124.868 141.57 124.457 140.538 123.95 139.784C123.387 138.948 122.411 138.029 120.717 137.073C117.067 135.012 111.881 133.698 105.286 132.103C105.109 132.06 104.93 132.017 104.751 131.973C98.8592 130.55 91.7244 128.826 86.1073 125.655C83.0815 123.946 80.1245 121.63 77.9339 118.375C75.6882 115.037 74.5261 111.122 74.5261 106.731C74.5261 91.6384 89.7548 81.1538 107.005 81.1538C115.819 81.1538 122.626 83.3312 127.838 86.5236C133.001 89.6857 136.21 93.6046 138.201 96.5065L126.15 104.775C124.855 102.888 123.03 100.718 120.205 98.9872C117.429 97.287 113.293 95.7692 107.005 95.7692Z" fill="#18A0FB"/>
</g>
<defs>
<clipPath id="clip0">
<rect width="218.693" height="251" fill="white" transform="translate(0.653442)"/>
</clipPath>
</defs>
</svg>
