<svg width="278" height="155" viewBox="0 0 278 155" fill="none" xmlns="http://www.w3.org/2000/svg">
<path d="M263.479 98.0181H218.338L214.461 105.71C211.385 111.906 207.908 116.788 202.736 121.893C181.263 143.367 148.104 146.09 123.686 130.016L123.242 129.724L28.8076 77.3698L126.217 23.184L126.362 23.0989C150.487 8.90884 182.041 12.1924 202.736 32.8875C207.738 37.8261 211.127 42.5306 214.168 48.4969L218.078 56.0602L263.479 56.0597L263.479 98.0181ZM115.996 141.698C145.845 161.347 186.366 158.042 212.625 131.783C218.582 125.827 223.357 119.137 226.951 112.004L277.465 112.004L277.464 42.0739L226.593 42.074C223.042 35.2042 218.386 28.7581 212.625 22.9979C187.315 -2.31284 148.754 -6.29774 119.271 11.0437L0 77.3904L115.996 141.698Z" fill="black"/>
<path d="M12.7876 70.3975V84.3834L165.227 84.3834V70.3975L12.7876 70.3975Z" fill="black"/>
<path d="M173.067 62.5561C181.26 70.7489 181.26 84.032 173.067 92.2248C164.874 100.418 151.591 100.418 143.399 92.2248C135.206 84.032 135.206 70.7489 143.399 62.5561C151.591 54.3633 164.874 54.3634 173.067 62.5561Z" fill="black"/>
</svg>
