<svg fill="none" height="32" viewBox="0 0 32 32" width="32" xmlns="http://www.w3.org/2000/svg"><g clip-rule="evenodd" fill="#000" fill-rule="evenodd"><path d="m12 16.05v-7.05h1v7.05c1.1411.2316 2 1.2405 2 2.45s-.8589 2.2184-2 2.45v2.05h-1v-2.05c-1.1411-.2316-2-1.2405-2-2.45s.8589-2.2184 2-2.45zm2 2.45c0 .8284-.6716 1.5-1.5 1.5s-1.5-.6716-1.5-1.5.6716-1.5 1.5-1.5 1.5.6716 1.5 1.5z"/><path d="m19 23h1v-7.05c1.1411-.2316 2-1.2405 2-2.45s-.8589-2.2184-2-2.45v-2.05h-1v2.05c-1.1411.2316-2 1.2405-2 2.45s.8589 2.2184 2 2.45zm2-9.5c0-.8284-.6716-1.5-1.5-1.5s-1.5.6716-1.5 1.5.6716 1.5 1.5 1.5 1.5-.6716 1.5-1.5z"/></g></svg>