<svg fill="none" height="32" viewBox="0 0 32 32" width="32" xmlns="http://www.w3.org/2000/svg"><g fill="#000"><path clip-rule="evenodd" d="m21.25 17.3929c0 .72.4349 1.3385 1.0563 1.6071.2127.0919.4473.1429.6937.1429v.8571h-14v-.8571c.24643 0 .48097-.051.69365-.1429.62145-.2686 1.05635-.8871 1.05635-1.6071v-3.3929c0-3.3137 2.3505-6 5.25-6s5.25 2.6863 5.25 6zm-1-3.3929v3.3929c0 .5999.1921 1.155.5182 1.6071h-9.5364c.3261-.4521.5182-1.0072.5182-1.6071v-3.3929c0-2.891 2.024-5 4.25-5s4.25 2.109 4.25 5z" fill-rule="evenodd"/><path d="m16 23c-1.1046 0-2-.8954-2-2h-1c0 1.6569 1.3431 3 3 3s3-1.3431 3-3h-1c0 1.1046-.8954 2-2 2z"/></g></svg>