<svg fill="none" height="32" viewBox="0 0 32 32" width="32" xmlns="http://www.w3.org/2000/svg"><path clip-rule="evenodd" d="m16.0016 11.0016c.2421.2504.4732.4895.6932.7185 2.2035 2.2923 3.3052 3.5738 3.3052 5.1318.0025 1.0624-.388 2.1256-1.1716 2.9361-1.562 1.616-4.0947 1.616-5.6567 0-.7836-.8105-1.1742-1.8737-1.1717-2.9361 0-1.558 1.1018-2.8395 3.3053-5.1318.2201-.229.4512-.4681.6933-.7186l.001-.001zm-2.1968 3.9096c.5019-.6803 1.2187-1.4542 2.1953-2.4708.9764 1.0166 1.6933 1.7905 2.1951 2.4708.5998.8133.8048 1.38.8048 1.9407v.0024c.0001.0486-.0008.0972-.0029.1457h-5.9942c-.002-.0485-.003-.0971-.0029-.1458v-.0023c0-.5607.205-1.1274.8048-1.9407z" fill="#000" fill-rule="evenodd"/></svg>