<svg fill="none" height="32" viewBox="0 0 32 32" width="32" xmlns="http://www.w3.org/2000/svg"><path clip-rule="evenodd" d="m12.0625 10.9375 3.9375 3.9375 3.9375-3.9375-3.9375-3.9375zm6.4608 0-2.5233 2.5233-2.5233-2.5233 2.5233-2.52329zm-6.4608 10.125 3.9375 3.9375 3.9375-3.9375-3.9375-3.9375zm6.4608 0-2.5233 2.5233-2.5233-2.5233 2.5233-2.5233zm-11.5233-5.0625 3.9375-3.9375 3.9375 3.9375-3.9375 3.9375zm3.9375 2.5233 2.5233-2.5233-2.5233-2.5233-2.52329 2.5233zm6.1875-2.5233 3.9375 3.9375 3.9375-3.9375-3.9375-3.9375zm6.4608 0-2.5233 2.5233-2.5233-2.5233 2.5233-2.5233z" fill="#000" fill-rule="evenodd"/></svg>