<svg fill="none" height="32" viewBox="0 0 32 32" width="32" xmlns="http://www.w3.org/2000/svg"><g fill="#000"><path d="m16.5 8.5h-1v3h1z"/><path d="m11.0503 10.3431-.7071.7072 2.1213 2.1213.7071-.7071z"/><path d="m21.657 11.0503-.7071-.7071-2.1214 2.1213.7071.7071z"/><path d="m8.5 15.5v1h3v-1z"/><path d="m20.5 15.5v1h3v-1z"/><path d="m13.1716 19.5355-.7071-.7071-2.1213 2.1214.7071.7071z"/><path d="m19.5354 18.8284-.7071.7071 2.1213 2.1214.7071-.7071z"/><path d="m16.5 20.5h-1v3h1z"/><path clip-rule="evenodd" d="m18.4978 15.9979c0 1.3807-1.1193 2.5-2.5 2.5s-2.5-1.1193-2.5-2.5 1.1193-2.5 2.5-2.5 2.5 1.1193 2.5 2.5zm-1 0c0 .8285-.6716 1.5-1.5 1.5s-1.5-.6715-1.5-1.5c0-.8284.6716-1.5 1.5-1.5s1.5.6716 1.5 1.5z" fill-rule="evenodd"/></g></svg>