<svg fill="none" height="32" viewBox="0 0 32 32" width="32" xmlns="http://www.w3.org/2000/svg"><g fill="#000"><path d="m13.5 18c1.9593 0 3.6262-1.2522 4.2439-3h1.0491c-.653 2.3085-2.7754 4-5.293 4-3.0376 0-5.5-2.4624-5.5-5.5s2.4624-5.5 5.5-5.5c2.5176 0 4.64 1.6915 5.293 4h-1.0491c-.6177-1.7478-2.2846-3-4.2439-3-2.4853 0-4.5 2.0147-4.5 4.5s2.0147 4.5 4.5 4.5z"/><path d="m18.5 23c2.4853 0 4.5-2.0147 4.5-4.5s-2.0147-4.5-4.5-4.5c-1.9593 0-3.6262 1.2522-4.2439 3h-1.0491c.653-2.3085 2.7754-4 5.293-4 3.0376 0 5.5 2.4624 5.5 5.5s-2.4624 5.5-5.5 5.5c-2.5176 0-4.64-1.6915-5.293-4h1.0491c.6177 1.7478 2.2846 3 4.2439 3z"/></g></svg>