<svg fill="none" height="32" viewBox="0 0 32 32" width="32" xmlns="http://www.w3.org/2000/svg"><path d="m20.824 14.492-1.657 1.657.828.829 1.658-1.657c1.373-1.373 1.373-3.6 0-4.973s-3.6-1.373-4.973 0l-1.657 1.658.829.828 1.657-1.657c.915-.915 2.4-.915 3.315 0 .915.916.915 2.4 0 3.315zm-4.974 4.972.829.829-1.658 1.657c-1.373 1.373-3.599 1.373-4.972 0-1.37299-1.373-1.37299-3.6 0-4.972l1.659-1.658.828.829-1.656 1.657c-.91599.916-.91599 2.4 0 3.315.915.916 2.4.916 3.315 0l1.657-1.657zm2.072-6.216-4.972 4.973.828.829 4.973-4.973z" fill="#000"/></svg>