<svg fill="none" height="32" viewBox="0 0 32 32" width="32" xmlns="http://www.w3.org/2000/svg"><path clip-rule="evenodd" d="m22 10h-12v7.7929l3.0833-3.0833 7.2905 7.2904h1.6262zm-12 12v-2.7929l3.0833-3.0833 5.8763 5.8762zm0-13c-.55228 0-1 .44772-1 1v12c0 .5523.44772 1 1 1h12c.5523 0 1-.4477 1-1v-12c0-.55228-.4477-1-1-1zm9.6667 4.6667c0 .7363-.597 1.3333-1.3334 1.3333-.7363 0-1.3333-.597-1.3333-1.3333 0-.7364.597-1.3334 1.3333-1.3334.7364 0 1.3334.597 1.3334 1.3334zm1 0c0 1.2886-1.0447 2.3333-2.3334 2.3333-1.2886 0-2.3333-1.0447-2.3333-2.3333 0-1.2887 1.0447-2.3334 2.3333-2.3334 1.2887 0 2.3334 1.0447 2.3334 2.3334z" fill="#000" fill-rule="evenodd"/></svg>