<svg fill="none" height="32" viewBox="0 0 32 32" width="32" xmlns="http://www.w3.org/2000/svg"><path clip-rule="evenodd" d="m15.1398 20.1401c1.0532-1.0532 1.1638-2.6922.3316-3.8684l2.0466-2.0466 1.7671 1.7671c.1953.1953.5119.1953.7071 0 .1953-.1952.1953-.5118 0-.7071l-1.7671-1.7671 1.293-1.2929 1.7843 1.7844c.1953.1953.5119.1953.7071 0 .1953-.1952.1953-.5118 0-.7071l-1.7843-1.7844.7614-.7614c.1953-.1953.1953-.5119 0-.7072-.1952-.19522-.5118-.19522-.7071 0l-5.5122 5.5123c-1.1776-.848-2.8295-.7423-3.8889.317-1.1767 1.1768-1.1767 3.0846 0 4.2614 1.1768 1.1767 3.0846 1.1767 4.2614 0zm-.7122-.7122c.7834-.7834.7834-2.0536 0-2.837s-2.0536-.7834-2.837 0-.7834 2.0536 0 2.837 2.0536.7834 2.837 0z" fill="#000" fill-rule="evenodd"/></svg>