<svg fill="none" height="32" viewBox="0 0 32 32" width="32" xmlns="http://www.w3.org/2000/svg"><g fill="#000"><path clip-rule="evenodd" d="m15.1181 11c-.4726 0-.9355.1339-1.335.3863l-2.5551 1.6137h7.272v1h-8.4974c-.0017.0169-.0026.034-.0026.0512v6.4488c0 .2777.223.5.4975.5h7.6273c.121 0 .2373-.0437.3285-.1235l3.2055-2.8048c.2169-.1898.3412-.4639.3412-.7524v-5.8193c0-.2761-.2239-.5-.5-.5zm-1.869-.4592c.5593-.3533 1.2074-.5408 1.869-.5408h6.3819c.8284 0 1.5.6716 1.5 1.5v5.8193c0 .5766-.2486 1.1251-.6827 1.505l-3.2055 2.8048c-.2734.2392-.6236.3709-.987.3709h-7.6273c-.82998 0-1.4975-.6732-1.4975-1.5v-6.4488c0-.5147.26386-.9934.69901-1.2683z" fill-rule="evenodd"/><path d="m13 16c0 .5523-.4477 1-1 1s-1-.4477-1-1 .4477-1 1-1 1 .4477 1 1z"/><path d="m17 16c0 .5523-.4477 1-1 1s-1-.4477-1-1 .4477-1 1-1 1 .4477 1 1z"/><path d="m17 19c0 .5523-.4477 1-1 1s-1-.4477-1-1 .4477-1 1-1 1 .4477 1 1z"/><path d="m13 19c0 .5523-.4477 1-1 1s-1-.4477-1-1 .4477-1 1-1 1 .4477 1 1z"/><g clip-rule="evenodd" fill-rule="evenodd"><path d="m22.4068 10.7094c.1605.2247.1085.5369-.1162.6974l-3.5 2.5001c-.2247.1605-.5369.1084-.6975-.1163-.1605-.2247-.1084-.5369.1163-.6975l3.4999-2.5c.2248-.1605.537-.1084.6975.1163z"/><path d="m18 21v-8h1v8z"/></g></g></svg>