<svg fill="none" height="32" viewBox="0 0 32 32" width="32" xmlns="http://www.w3.org/2000/svg"><path clip-rule="evenodd" d="m15.8536 8.64645 2.3535 2.35355-2.3535 2.3536-.7072-.7072 1.1465-1.1464h-2.2929c-.5033 0-1.2694.1551-1.8953.6058-.6005.4323-1.1047 1.1572-1.1047 2.3942v7.25h-1v-7.25c0-1.563.6624-2.5881 1.5203-3.2058.8325-.5993 1.8164-.7942 2.4797-.7942h2.2929l-1.1465-1.14645zm6.1464 1.35355v7.25c0 1.563-.6624 2.5881-1.5203 3.2058-.8325.5993-1.8164.7942-2.4797.7942h-2.2929l1.1465 1.1464-.7072.7072-2.3535-2.3536 2.3535-2.3536.7072.7072-1.1465 1.1464h2.2929c.5033 0 1.2694-.1551 1.8953-.6058.6005-.4323 1.1047-1.1572 1.1047-2.3942v-7.25z" fill="#000" fill-rule="evenodd"/></svg>