<svg fill="none" height="32" viewBox="0 0 32 32" width="32" xmlns="http://www.w3.org/2000/svg"><path clip-rule="evenodd" d="m20 9.5c-1.933 0-3.5 1.567-3.5 3.5 0 1.442.872 2.6803 2.1175 3.2164-1.1371.3667-2.0766 1.1736-2.6175 2.22-.5409-1.0464-1.4803-1.8533-2.6175-2.22 1.2455-.5361 2.1175-1.7744 2.1175-3.2164 0-1.933-1.567-3.5-3.5-3.5s-3.5 1.567-3.5 3.5c0 1.442.87203 2.6803 2.1175 3.2164-1.80889.5833-3.1175 2.2806-3.1175 4.2836v1.5h17v-1.5c0-2.003-1.3086-3.7003-3.1175-4.2836 1.2455-.5361 2.1175-1.7744 2.1175-3.2164 0-1.933-1.567-3.5-3.5-3.5zm-2.5 3.5c0-1.3807 1.1193-2.5 2.5-2.5 1.3808 0 2.5 1.1193 2.5 2.5s-1.1192 2.5-2.5 2.5c-1.3807 0-2.5-1.1193-2.5-2.5zm-1 8v-.5c0-1.933 1.567-3.5 3.5-3.5s3.5 1.567 3.5 3.5v.5zm-1-.5v.5h-7v-.5c0-1.933 1.567-3.5 3.5-3.5s3.5 1.567 3.5 3.5zm-6-7.5c0-1.3807 1.1193-2.5 2.5-2.5 1.3808 0 2.5 1.1193 2.5 2.5s-1.1192 2.5-2.5 2.5c-1.3807 0-2.5-1.1193-2.5-2.5z" fill="#000" fill-rule="evenodd"/></svg>