<svg fill="none" height="32" viewBox="0 0 32 32" width="32" xmlns="http://www.w3.org/2000/svg"><g fill="#000"><path d="m15.9999 20c-1.8638 0-3.4299-1.2748-3.8739-3h1.0446c.4119 1.1652 1.5231 2 2.8293 2 1.3063 0 2.4175-.8348 2.8293-2h1.0447c-.444 1.7252-2.0101 3-3.874 3z"/><path d="m19.5 14.125c0 .4832-.3918.875-.875.875s-.875-.3918-.875-.875.3918-.875.875-.875.875.3918.875.875z"/><path d="m13.125 15c.4832 0 .875-.3918.875-.875s-.3918-.875-.875-.875-.875.3918-.875.875.3918.875.875.875z"/><path clip-rule="evenodd" d="m24 16c0 4.4183-3.5817 8-8 8s-8-3.5817-8-8 3.5817-8 8-8 8 3.5817 8 8zm-1 0c0 3.866-3.134 7-7 7s-7-3.134-7-7 3.134-7 7-7 7 3.134 7 7z" fill-rule="evenodd"/></g></svg>