<svg fill="none" height="32" viewBox="0 0 32 32" width="32" xmlns="http://www.w3.org/2000/svg"><g fill="#000"><path d="m23 13.1877-1.1747 1.4683c-.0081-.0521-.0169-.1041-.0265-.156-.1515-.8194-.4881-1.5981-.9894-2.2746-.7021-.9474-1.6901-1.6441-2.8183-1.9873-1.1281-.34321-2.3367-.31473-3.4475.0812-.7931.2828-1.5063.7421-2.0884 1.3383-.2332.2388-.4453.4995-.633.7796l.8306.5569c.5372-.8014 1.3179-1.4087 2.2267-1.7327.9087-.3239 1.8975-.3472 2.8205-.0664.9231.2807 1.7314.8507 2.3058 1.6259.4847.6541.7812 1.4251.862 2.2297l-2.2-1.4666-.5547.832 3.3814 2.2543 2.2864-2.858z"/><path d="m9 17.1877.78087.6246 1.17473-1.4683c.0081.0521.0169.1041.0265.156.1515.8194.4881 1.5981.9894 2.2746.7021.9474 1.6901 1.6441 2.8182 1.9873 1.1282.3432 2.3368.3147 3.4475-.0812.7931-.2828 1.5064-.7421 2.0885-1.3383.2326-.2383.4444-.4984.6318-.7778l.0012-.0018-.8306-.5569-.0012.0015c-.5372.8006-1.3174 1.4074-2.2255 1.7312-.9088.3239-1.8976.3472-2.8206.0664-.923-.2807-1.7313-.8507-2.3057-1.6259-.4848-.6541-.7813-1.4251-.862-2.2297l2.2 1.4666.5547-.832-3.3814-2.2543z"/></g></svg>