<svg fill="none" height="32" viewBox="0 0 32 32" width="32" xmlns="http://www.w3.org/2000/svg"><g fill="#000"><path clip-rule="evenodd" d="m13 10h-3v12h3zm-3-1c-.55228 0-1 .44772-1 1v12c0 .5523.44772 1 1 1h3c.5523 0 1-.4477 1-1v-12c0-.55228-.4477-1-1-1z" fill-rule="evenodd"/><path d="m10.75 20.5c0-.4142.3358-.75.75-.75s.75.3358.75.75-.3358.75-.75.75-.75-.3358-.75-.75z"/><path d="m22 18c.5523 0 1 .4477 1 1v3c0 .5523-.4477 1-1 1h-7v-1h7v-3h-7v-1z"/><path d="m18.3848 17 2.7573-2.7574c.3906-.3905.3906-1.0236 0-1.4142l-2.1213-2.1213c-.3905-.3905-1.0237-.3905-1.4142 0l-2.6066 2.6066v1.4142l3.3137-3.3137 2.1213 2.1213-3.4644 3.4645z"/></g></svg>