<svg fill="none" height="32" viewBox="0 0 32 32" width="32" xmlns="http://www.w3.org/2000/svg"><g fill="#000"><path d="m19 8h-6v-1h6z"/><path d="m16.5 17v-5h-1v5c0 .2761.2239.5.5.5s.5-.2239.5-.5z"/><path clip-rule="evenodd" d="m22.7146 12.6492 1.5278-1.5279-2.1213-2.1213-1.4818 1.4818c-1.3085-.93298-2.9098-1.4818-4.6393-1.4818-4.4183 0-8 3.5817-8 8s3.5817 8 8 8 8-3.5817 8-8c0-1.6044-.4723-3.0985-1.2854-4.3508zm.2854 4.3508c0 3.866-3.134 7-7 7s-7-3.134-7-7 3.134-7 7-7c1.7683 0 3.3835.6557 4.6157 1.7372l.6471.6471c1.0815 1.2322 1.7372 2.8474 1.7372 4.6157zm-1.0077-5.3004.1288.1288.7071-.7071-.7071-.7071-.7013.7013c.2005.1849.3916.3798.5725.5841z" fill-rule="evenodd"/></g></svg>