<svg fill="none" height="32" viewBox="0 0 32 32" width="32" xmlns="http://www.w3.org/2000/svg"><g fill="#000"><path d="m16.0004 18c1.1045 0 2-.8954 2-2s-.8955-2-2-2c-1.1046 0-2 .8954-2 2s.8954 2 2 2z"/><path clip-rule="evenodd" d="m16.0001 12c2.878 0 5.3774 1.6211 6.6349 4-1.2575 2.3789-3.7569 4-6.6349 4-2.8781 0-5.3775-1.6211-6.63499-4 1.25749-2.3789 3.75689-4 6.63499-4zm0 7c-2.2999 0-4.3222-1.1942-5.4784-3 1.1562-1.8058 3.1785-3 5.4784-3 2.2998 0 4.3221 1.1942 5.4783 3-1.1562 1.8058-3.1785 3-5.4783 3z" fill-rule="evenodd"/></g></svg>