<svg width="220" height="251" viewBox="0 0 220 251" fill="none" xmlns="http://www.w3.org/2000/svg">
<g clip-path="url(#clip0)">
<path fill-rule="evenodd" clip-rule="evenodd" d="M71.2472 54.9062L81.1074 64.7665L116.293 99.9523L126.153 109.812L136.014 99.9523L171.199 64.7665L181.06 54.9062L171.199 45.046L136.014 9.86021L126.153 0L116.293 9.86021L81.1074 45.046L71.2472 54.9062ZM161.339 54.9062L126.153 90.0921L90.9676 54.9062L126.153 19.7204L161.339 54.9062ZM71.2472 196.094L81.1074 205.954L116.293 241.14L126.153 251L136.014 241.14L171.199 205.954L181.06 196.094L171.199 186.234L136.014 151.048L126.153 141.188L116.293 151.048L81.1074 186.234L71.2472 196.094ZM161.339 196.094L126.153 231.28L90.9676 196.094L126.153 160.908L161.339 196.094ZM10.5137 135.36L0.653442 125.5L10.5137 115.64L45.6995 80.454L55.5597 70.5938L65.4199 80.454L100.606 115.64L110.466 125.5L100.606 135.36L65.4199 170.546L55.5597 180.406L45.6995 170.546L10.5137 135.36ZM55.5597 160.686L90.7455 125.5L55.5597 90.3142L20.3739 125.5L55.5597 160.686ZM141.841 125.5L151.701 135.36L186.887 170.546L196.747 180.406L206.607 170.546L241.793 135.36L251.653 125.5L241.793 115.64L206.607 80.454L196.747 70.5938L186.887 80.454L151.701 115.64L141.841 125.5ZM231.933 125.5L196.747 160.686L161.561 125.5L196.747 90.3142L231.933 125.5Z" fill="#7B61FF"/>
</g>
<defs>
<clipPath id="clip0">
<rect width="218.693" height="251" fill="white" transform="translate(0.653442)"/>
</clipPath>
</defs>
</svg>
